<svg xmlns="http://www.w3.org/2000/svg" viewBox="0 0 20.971 20.971"><path d="M17.971 18.485h-10c-1.436 0-3.145-.88-3.977-2.046l-2.619-3.667C.746 11.891.218 11.151.187 11.111c-.246-.344-.249-.894-.008-1.241.018-.025.561-.783 1.204-1.686l2.608-3.653c.835-1.167 2.546-2.046 3.98-2.046h10c1.654 0 3 1.346 3 3v10c0 1.654-1.346 3-3 3zM2.2 10.484l.806 1.125 2.618 3.667c.451.633 1.57 1.209 2.348 1.209h10c.552 0 1-.45 1-1.001V5.485c0-.551-.448-1-1-1h-10c-.776 0-1.897.576-2.351 1.209L3.013 9.346 2.2 10.484z"/><path d="M12.678 10.485l2.646-2.646a.502.502 0 0 0 0-.707.502.502 0 0 0-.707 0l-2.646 2.646-2.646-2.646a.5.5 0 0 0-.707.707l2.646 2.646-2.646 2.646a.5.5 0 0 0 .707.708l2.646-2.647 2.646 2.646a.5.5 0 1 0 .708-.706l-2.647-2.647z"/></svg>