<svg xmlns="http://www.w3.org/2000/svg" viewBox="0 0 109.128 109.128"><path d="M100.218 5.94c0-3.3-2.668-5.94-5.941-5.94H14.906c-3.3 0-5.94 2.667-5.94 5.94 0 3.3 2.668 5.94 5.94 5.94h79.371c3.273.028 5.941-2.64 5.941-5.94zM8.91 63.502a5.933 5.933 0 0 0 5.941 5.941h33.772v33.744a5.932 5.932 0 0 0 5.94 5.94 5.933 5.933 0 0 0 5.941-5.94V69.443h33.744a5.933 5.933 0 0 0 5.941-5.941c0-3.271-2.668-5.939-5.941-5.939H60.503V23.817c0-3.3-2.668-5.94-5.941-5.94-3.3 0-5.94 2.667-5.94 5.94v33.718H14.878a5.961 5.961 0 0 0-5.968 5.967z"/></svg>