<svg xmlns="http://www.w3.org/2000/svg" viewBox="0 0 143.732 143.732"><path d="M22.738 30.86c0 10.3 8.378 18.678 18.678 18.678S60.093 41.16 60.093 30.86s-8.377-18.677-18.677-18.677c-10.3 0-18.678 8.377-18.678 18.677zm79.58 96.63c10.301 0 18.679-8.377 18.679-18.678 0-10.299-8.378-18.674-18.679-18.674-10.3 0-18.678 8.377-18.678 18.677s8.379 18.675 18.678 18.675zm-77.109 15.031a7.3 7.3 0 0 0 10.125-2.07l85.263-129.114A7.31 7.31 0 0 0 108.4 3.28L23.135 132.395a7.307 7.307 0 0 0 2.074 10.126z"/></svg>