<svg xmlns="http://www.w3.org/2000/svg" viewBox="0 0 121.805 121.805"><path d="M7.309 71.663h107.188a7.308 7.308 0 0 0 7.308-7.309 7.308 7.308 0 0 0-7.308-7.309H7.309a7.31 7.31 0 0 0 0 14.618zm53.393-32.887c9.963 0 18.067-8.104 18.067-18.068 0-9.963-8.104-18.068-18.067-18.068-9.962 0-18.069 8.105-18.069 18.068-.001 9.963 8.105 18.068 18.069 18.068zm18.066 62.322c0-9.963-8.104-18.067-18.068-18.067-9.961 0-18.068 8.104-18.068 18.067 0 9.961 8.104 18.067 18.068 18.067 9.963 0 18.068-8.102 18.068-18.067z"/></svg>