<svg xmlns="http://www.w3.org/2000/svg" xmlns:xlink="http://www.w3.org/1999/xlink"><symbol id="cancel-icon" viewBox="0 0 20.971 20.971"><path d="M17.971 18.485h-10c-1.436 0-3.145-.88-3.977-2.046l-2.619-3.667C.746 11.891.218 11.151.187 11.111c-.246-.344-.249-.894-.008-1.241.018-.025.561-.783 1.204-1.686l2.608-3.653c.835-1.167 2.546-2.046 3.98-2.046h10c1.654 0 3 1.346 3 3v10c0 1.654-1.346 3-3 3zM2.2 10.484l.806 1.125 2.618 3.667c.451.633 1.57 1.209 2.348 1.209h10c.552 0 1-.45 1-1.001V5.485c0-.551-.448-1-1-1h-10c-.776 0-1.897.576-2.351 1.209L3.013 9.346 2.2 10.484z"/><path d="M12.678 10.485l2.646-2.646a.502.502 0 0 0 0-.707.502.502 0 0 0-.707 0l-2.646 2.646-2.646-2.646a.5.5 0 0 0-.707.707l2.646 2.646-2.646 2.646a.5.5 0 0 0 .707.708l2.646-2.647 2.646 2.646a.5.5 0 1 0 .708-.706l-2.647-2.647z"/></symbol><symbol id="divide-icon" viewBox="0 0 121.805 121.805"><path d="M7.309 71.663h107.188a7.308 7.308 0 0 0 7.308-7.309 7.308 7.308 0 0 0-7.308-7.309H7.309a7.31 7.31 0 0 0 0 14.618zm53.393-32.887c9.963 0 18.067-8.104 18.067-18.068 0-9.963-8.104-18.068-18.067-18.068-9.962 0-18.069 8.105-18.069 18.068-.001 9.963 8.105 18.068 18.069 18.068zm18.066 62.322c0-9.963-8.104-18.067-18.068-18.067-9.961 0-18.068 8.104-18.068 18.067 0 9.961 8.104 18.067 18.068 18.067 9.963 0 18.068-8.102 18.068-18.067z"/></symbol><symbol id="hyperbola-icon" viewBox="0 0 15.25 20.19"><text transform="matrix(.98 0 0 1 0 10.46)" font-size="12.188" font-family="Arial-BoldMT,Arial" font-weight="700">1</text><text transform="matrix(.98 0 0 1 8.58 15.6)" font-size="12.188" font-family="Arial-BoldMT,Arial" font-weight="700">x</text><path d="M12.15 2.93l-.81-.59-8.75 12.38.81.59 8.75-12.38z"/></symbol><symbol id="less-plus-icon" viewBox="0 0 109.128 109.128"><path d="M100.218 5.94c0-3.3-2.668-5.94-5.941-5.94H14.906c-3.3 0-5.94 2.667-5.94 5.94 0 3.3 2.668 5.94 5.94 5.94h79.371c3.273.028 5.941-2.64 5.941-5.94zM8.91 63.502a5.933 5.933 0 0 0 5.941 5.941h33.772v33.744a5.932 5.932 0 0 0 5.94 5.94 5.933 5.933 0 0 0 5.941-5.94V69.443h33.744a5.933 5.933 0 0 0 5.941-5.941c0-3.271-2.668-5.939-5.941-5.939H60.503V23.817c0-3.3-2.668-5.94-5.941-5.94-3.3 0-5.94 2.667-5.94 5.94v33.718H14.878a5.961 5.961 0 0 0-5.968 5.967z"/></symbol><symbol id="minus-icon" viewBox="0 0 121.805 121.805"><path d="M7.308 68.211h107.188a7.309 7.309 0 0 0 7.309-7.31 7.308 7.308 0 0 0-7.309-7.309H7.308a7.31 7.31 0 0 0 0 14.619z"/></symbol><symbol id="multiply-icon" viewBox="0 0 92.132 92.132"><path d="M2.141 89.13a7.278 7.278 0 0 0 5.167 2.142 7.276 7.276 0 0 0 5.167-2.142l33.591-33.592L79.657 89.13a7.28 7.28 0 0 0 5.167 2.142c1.867 0 3.74-.713 5.167-2.142a7.307 7.307 0 0 0 0-10.334L56.398 45.205l31.869-31.869a7.305 7.305 0 0 0 0-10.334 7.305 7.305 0 0 0-10.334 0L46.065 34.87 14.198 3.001a7.304 7.304 0 0 0-10.333 0 7.305 7.305 0 0 0 0 10.334l31.868 31.869-33.59 33.591a7.304 7.304 0 0 0-.002 10.335z"/></symbol><symbol id="percent-icon" viewBox="0 0 143.732 143.732"><path d="M22.738 30.86c0 10.3 8.378 18.678 18.678 18.678S60.093 41.16 60.093 30.86s-8.377-18.677-18.677-18.677c-10.3 0-18.678 8.377-18.678 18.677zm79.58 96.63c10.301 0 18.679-8.377 18.679-18.678 0-10.299-8.378-18.674-18.679-18.674-10.3 0-18.678 8.377-18.678 18.677s8.379 18.675 18.678 18.675zm-77.109 15.031a7.3 7.3 0 0 0 10.125-2.07l85.263-129.114A7.31 7.31 0 0 0 108.4 3.28L23.135 132.395a7.307 7.307 0 0 0 2.074 10.126z"/></symbol><symbol id="plus-and-minus-icon" viewBox="0 0 141.293 141.293"><path d="M77.955 109.975a7.31 7.31 0 0 0 0 14.618h56.029a7.308 7.308 0 0 0 7.309-7.31 7.308 7.308 0 0 0-7.309-7.308H77.955zM0 44.2a7.308 7.308 0 0 0 7.309 7.308h19.489v19.49a7.308 7.308 0 1 0 14.617 0v-19.49H63.34a7.307 7.307 0 0 0 7.308-7.308 7.308 7.308 0 0 0-7.308-7.309H41.414V12.53a7.308 7.308 0 0 0-7.309-7.308 7.307 7.307 0 0 0-7.308 7.308v24.361H7.308A7.31 7.31 0 0 0 0 44.2zm131.428-26.939a7.307 7.307 0 0 0-10.336 0L14.763 123.594a7.308 7.308 0 0 0 0 10.334 7.277 7.277 0 0 0 5.167 2.143 7.287 7.287 0 0 0 5.169-2.143L131.428 27.599a7.31 7.31 0 0 0 0-10.338z"/></symbol><symbol id="plus-icon" viewBox="0 0 93.562 93.562"><path d="M87.952 41.17l-36.386.11V5.61A5.598 5.598 0 0 0 45.956 0a5.598 5.598 0 0 0-5.61 5.61l.11 35.561H5.61A5.598 5.598 0 0 0 0 46.781a5.597 5.597 0 0 0 5.61 5.609h34.791v35.562a5.599 5.599 0 0 0 5.61 5.61 5.599 5.599 0 0 0 5.61-5.61V52.391h36.331a5.599 5.599 0 0 0 5.61-5.61 5.616 5.616 0 0 0-5.61-5.611z"/></symbol><symbol id="result-icon" viewBox="0 0 121.805 121.805"><path d="M7.308 85.264h107.188c4.037 0 7.309-3.271 7.309-7.31s-3.271-7.309-7.309-7.309H7.308C3.271 70.646 0 73.916 0 77.954s3.271 7.31 7.308 7.31zm0-34.106h107.188a7.309 7.309 0 1 0 0-14.617H7.308A7.307 7.307 0 0 0 0 43.849a7.308 7.308 0 0 0 7.308 7.309z"/></symbol><symbol id="root-icon" viewBox="0 0 131.549 131.549"><path d="M7.308 89.374h3.713l23.387 30.344a7.295 7.295 0 0 0 6.587 2.806 7.309 7.309 0 0 0 5.822-4.168L91.131 23.6h33.109a7.308 7.308 0 1 0 0-14.617H86.48a7.31 7.31 0 0 0-6.621 4.212l-41.201 88.097-18.253-23.688a7.305 7.305 0 0 0-5.788-2.848H7.308C3.272 74.756 0 78.027 0 82.065s3.272 7.309 7.308 7.309z"/></symbol><symbol id="square-icon" viewBox="0 0 31.773 31.773"><path d="M15.383 18.945l7.761 12.506h-5.398l-3.48-5.825a62.062 62.062 0 0 1-1.527-2.736l-.498-.959-.515-.941h-.07l-.515.959a73.653 73.653 0 0 1-2.099 3.68l-3.498 5.826H0l7.959-12.508L.57 7.206h5.489l3.23 5.399a67.1 67.1 0 0 1 1.438 2.521l.445.852.442.855h.07c.201-.379.35-.663.445-.855l.442-.834c.379-.733.854-1.574 1.422-2.521l3.231-5.418h5.436l-7.277 11.74zm9.781-8.931c0-.82.111-1.316.334-1.49.223-.176 1.02-.387 2.393-.637 1.664-.309 2.729-.693 3.189-1.15.461-.459.689-1.366.689-2.723 0-1.436-.303-2.41-.908-2.924-.607-.512-1.762-.771-3.457-.771-1.738 0-2.91.255-3.516.763-.604.506-.906 1.492-.906 2.957v.485h2.174V4.03c0-.85.127-1.385.383-1.604.258-.219.875-.33 1.854-.33.953 0 1.557.109 1.811.326.254.217.381.729.381 1.539 0 .842-.127 1.365-.381 1.567-.254.201-1.066.427-2.439.671-1.658.297-2.709.646-3.15 1.051-.439.405-.66 1.225-.66 2.455v2.377h8.82v-1.754h-6.607l-.004-.314z"/></symbol></svg>