<svg xmlns="http://www.w3.org/2000/svg" viewBox="0 0 31.773 31.773"><path d="M15.383 18.945l7.761 12.506h-5.398l-3.48-5.825a62.062 62.062 0 0 1-1.527-2.736l-.498-.959-.515-.941h-.07l-.515.959a73.653 73.653 0 0 1-2.099 3.68l-3.498 5.826H0l7.959-12.508L.57 7.206h5.489l3.23 5.399a67.1 67.1 0 0 1 1.438 2.521l.445.852.442.855h.07c.201-.379.35-.663.445-.855l.442-.834c.379-.733.854-1.574 1.422-2.521l3.231-5.418h5.436l-7.277 11.74zm9.781-8.931c0-.82.111-1.316.334-1.49.223-.176 1.02-.387 2.393-.637 1.664-.309 2.729-.693 3.189-1.15.461-.459.689-1.366.689-2.723 0-1.436-.303-2.41-.908-2.924-.607-.512-1.762-.771-3.457-.771-1.738 0-2.91.255-3.516.763-.604.506-.906 1.492-.906 2.957v.485h2.174V4.03c0-.85.127-1.385.383-1.604.258-.219.875-.33 1.854-.33.953 0 1.557.109 1.811.326.254.217.381.729.381 1.539 0 .842-.127 1.365-.381 1.567-.254.201-1.066.427-2.439.671-1.658.297-2.709.646-3.15 1.051-.439.405-.66 1.225-.66 2.455v2.377h8.82v-1.754h-6.607l-.004-.314z"/></svg>